HIERARCHY
ROOT mixamorig:Hips
{
	OFFSET -0.000008 104.274872 1.554316
	CHANNELS 6 Xposition Yposition Zposition Xrotation Yrotation Zrotation
	JOINT mixamorig:Spine
	{
		OFFSET -0.000005 10.181595 0.131519
		CHANNELS 6 Xposition Yposition Zposition Xrotation Yrotation Zrotation
		JOINT mixamorig:Spine1
		{
			OFFSET -0.000000 9.893959 -1.470707
			CHANNELS 6 Xposition Yposition Zposition Xrotation Yrotation Zrotation
			JOINT mixamorig:Spine2
			{
				OFFSET -0.000000 9.220757 -1.370641
				CHANNELS 6 Xposition Yposition Zposition Xrotation Yrotation Zrotation
				JOINT mixamorig:Neck
				{
					OFFSET 0.000001 16.740417 -2.049036
					CHANNELS 6 Xposition Yposition Zposition Xrotation Yrotation Zrotation
					JOINT mixamorig:Head
					{
						OFFSET 0.000000 9.617874 1.685006
						CHANNELS 6 Xposition Yposition Zposition Xrotation Yrotation Zrotation
						JOINT mixamorig:HeadTop_End
						{
							OFFSET 0.000002 22.037354 7.501101
							CHANNELS 6 Xposition Yposition Zposition Xrotation Yrotation Zrotation
							End Site
							{
								OFFSET 0.000168 2310.654297 -282.823242
							}
						}
					}
				}
				JOINT mixamorig:RightShoulder
				{
					OFFSET -4.569970 11.014908 -2.160885
					CHANNELS 6 Xposition Yposition Zposition Xrotation Yrotation Zrotation
					JOINT mixamorig:RightArm
					{
						OFFSET -10.592851 -0.524811 -2.232101
						CHANNELS 6 Xposition Yposition Zposition Xrotation Yrotation Zrotation
						JOINT mixamorig:RightForeArm
						{
							OFFSET -27.841511 0.000031 -0.000004
							CHANNELS 6 Xposition Yposition Zposition Xrotation Yrotation Zrotation
							JOINT mixamorig:RightHand
							{
								OFFSET -28.328831 -0.000015 0.000015
								CHANNELS 6 Xposition Yposition Zposition Xrotation Yrotation Zrotation
								JOINT mixamorig:RightHandThumb1
								{
									OFFSET -2.464806 -1.573990 2.681852
									CHANNELS 6 Xposition Yposition Zposition Xrotation Yrotation Zrotation
									JOINT mixamorig:RightHandThumb2
									{
										OFFSET -3.215179 -1.872803 1.924282
										CHANNELS 6 Xposition Yposition Zposition Xrotation Yrotation Zrotation
										JOINT mixamorig:RightHandThumb3
										{
											OFFSET -2.654831 -1.527969 1.512609
											CHANNELS 6 Xposition Yposition Zposition Xrotation Yrotation Zrotation
											JOINT mixamorig:RightHandThumb4
											{
												OFFSET -2.018814 -1.152008 1.108052
												CHANNELS 6 Xposition Yposition Zposition Xrotation Yrotation Zrotation
												End Site
												{
													OFFSET -188.809540 -114.533607 132.431396
												}
											}
										}
									}
								}
								JOINT mixamorig:RightHandIndex1
								{
									OFFSET -9.108284 -0.517868 2.259835
									CHANNELS 6 Xposition Yposition Zposition Xrotation Yrotation Zrotation
									JOINT mixamorig:RightHandIndex2
									{
										OFFSET -3.699989 0.000000 0.001215
										CHANNELS 6 Xposition Yposition Zposition Xrotation Yrotation Zrotation
										JOINT mixamorig:RightHandIndex3
										{
											OFFSET -2.850006 0.000031 -0.000522
											CHANNELS 6 Xposition Yposition Zposition Xrotation Yrotation Zrotation
											JOINT mixamorig:RightHandIndex4
											{
												OFFSET -2.772186 -0.000015 -0.000020
												CHANNELS 6 Xposition Yposition Zposition Xrotation Yrotation Zrotation
												End Site
												{
													OFFSET -277.218445 0.000000 -0.050231
												}
											}
										}
									}
								}
								JOINT mixamorig:RightHandMiddle1
								{
									OFFSET -9.532516 -0.000031 -0.000023
									CHANNELS 6 Xposition Yposition Zposition Xrotation Yrotation Zrotation
									JOINT mixamorig:RightHandMiddle2
									{
										OFFSET -3.700005 -0.000015 0.003713
										CHANNELS 6 Xposition Yposition Zposition Xrotation Yrotation Zrotation
										JOINT mixamorig:RightHandMiddle3
										{
											OFFSET -2.949974 0.000015 -0.002054
											CHANNELS 6 Xposition Yposition Zposition Xrotation Yrotation Zrotation
											JOINT mixamorig:RightHandMiddle4
											{
												OFFSET -2.946640 0.000000 -0.000156
												CHANNELS 6 Xposition Yposition Zposition Xrotation Yrotation Zrotation
												End Site
												{
													OFFSET -294.664337 0.000000 -0.113670
												}
											}
										}
									}
								}
								JOINT mixamorig:RightHandRing1
								{
									OFFSET -9.103600 -0.043076 -1.865134
									CHANNELS 6 Xposition Yposition Zposition Xrotation Yrotation Zrotation
									JOINT mixamorig:RightHandRing2
									{
										OFFSET -3.379288 0.000000 -0.001055
										CHANNELS 6 Xposition Yposition Zposition Xrotation Yrotation Zrotation
										JOINT mixamorig:RightHandRing3
										{
											OFFSET -2.889687 -0.000015 0.000379
											CHANNELS 6 Xposition Yposition Zposition Xrotation Yrotation Zrotation
											JOINT mixamorig:RightHandRing4
											{
												OFFSET -2.638809 -0.000015 0.000941
												CHANNELS 6 Xposition Yposition Zposition Xrotation Yrotation Zrotation
												End Site
												{
													OFFSET -263.880371 0.000000 0.516020
												}
											}
										}
									}
								}
								JOINT mixamorig:RightHandPinky1
								{
									OFFSET -8.076683 -0.486710 -3.806280
									CHANNELS 6 Xposition Yposition Zposition Xrotation Yrotation Zrotation
									JOINT mixamorig:RightHandPinky2
									{
										OFFSET -3.600014 -0.000015 -0.003747
										CHANNELS 6 Xposition Yposition Zposition Xrotation Yrotation Zrotation
										JOINT mixamorig:RightHandPinky3
										{
											OFFSET -2.099983 0.000000 -0.005739
											CHANNELS 6 Xposition Yposition Zposition Xrotation Yrotation Zrotation
											JOINT mixamorig:RightHandPinky4
											{
												OFFSET -2.115768 -0.000031 -0.003680
												CHANNELS 6 Xposition Yposition Zposition Xrotation Yrotation Zrotation
												End Site
												{
													OFFSET -211.577087 0.000000 -0.350686
												}
											}
										}
									}
								}
							}
						}
					}
				}
				JOINT mixamorig:LeftShoulder
				{
					OFFSET 4.570447 11.014725 -2.160855
					CHANNELS 6 Xposition Yposition Zposition Xrotation Yrotation Zrotation
					JOINT mixamorig:LeftArm
					{
						OFFSET 10.592371 -0.524597 -2.232119
						CHANNELS 6 Xposition Yposition Zposition Xrotation Yrotation Zrotation
						JOINT mixamorig:LeftForeArm
						{
							OFFSET 27.841532 -0.000031 0.000026
							CHANNELS 6 Xposition Yposition Zposition Xrotation Yrotation Zrotation
							JOINT mixamorig:LeftHand
							{
								OFFSET 28.328846 -0.000061 0.000022
								CHANNELS 6 Xposition Yposition Zposition Xrotation Yrotation Zrotation
								JOINT mixamorig:LeftHandThumb1
								{
									OFFSET 2.466141 -1.576172 2.681732
									CHANNELS 6 Xposition Yposition Zposition Xrotation Yrotation Zrotation
									JOINT mixamorig:LeftHandThumb2
									{
										OFFSET 3.217812 -1.872070 1.916482
										CHANNELS 6 Xposition Yposition Zposition Xrotation Yrotation Zrotation
										JOINT mixamorig:LeftHandThumb3
										{
											OFFSET 2.656029 -1.528778 1.514513
											CHANNELS 6 Xposition Yposition Zposition Xrotation Yrotation Zrotation
											JOINT mixamorig:LeftHandThumb4
											{
												OFFSET 2.020889 -1.154053 1.115139
												CHANNELS 6 Xposition Yposition Zposition Xrotation Yrotation Zrotation
												End Site
												{
													OFFSET 190.885437 -115.081749 130.048782
												}
											}
										}
									}
								}
								JOINT mixamorig:LeftHandIndex1
								{
									OFFSET 9.109314 -0.518021 2.259871
									CHANNELS 6 Xposition Yposition Zposition Xrotation Yrotation Zrotation
									JOINT mixamorig:LeftHandIndex2
									{
										OFFSET 3.699989 0.000000 -0.000322
										CHANNELS 6 Xposition Yposition Zposition Xrotation Yrotation Zrotation
										JOINT mixamorig:LeftHandIndex3
										{
											OFFSET 2.850006 0.000000 0.000352
											CHANNELS 6 Xposition Yposition Zposition Xrotation Yrotation Zrotation
											JOINT mixamorig:LeftHandIndex4
											{
												OFFSET 2.774864 -0.000031 -0.000027
												CHANNELS 6 Xposition Yposition Zposition Xrotation Yrotation Zrotation
												End Site
												{
													OFFSET 277.486267 0.000000 -0.009857
												}
											}
										}
									}
								}
								JOINT mixamorig:LeftHandMiddle1
								{
									OFFSET 9.533394 0.000061 0.000044
									CHANNELS 6 Xposition Yposition Zposition Xrotation Yrotation Zrotation
									JOINT mixamorig:LeftHandMiddle2
									{
										OFFSET 3.699989 -0.000015 -0.000231
										CHANNELS 6 Xposition Yposition Zposition Xrotation Yrotation Zrotation
										JOINT mixamorig:LeftHandMiddle3
										{
											OFFSET 2.949997 -0.000015 -0.000059
											CHANNELS 6 Xposition Yposition Zposition Xrotation Yrotation Zrotation
											JOINT mixamorig:LeftHandMiddle4
											{
												OFFSET 2.952896 0.000031 0.000063
												CHANNELS 6 Xposition Yposition Zposition Xrotation Yrotation Zrotation
												End Site
												{
													OFFSET 295.289337 0.000000 0.022810
												}
											}
										}
									}
								}
								JOINT mixamorig:LeftHandRing1
								{
									OFFSET 9.104523 -0.042999 -1.865074
									CHANNELS 6 Xposition Yposition Zposition Xrotation Yrotation Zrotation
									JOINT mixamorig:LeftHandRing2
									{
										OFFSET 3.150009 -0.000031 0.000043
										CHANNELS 6 Xposition Yposition Zposition Xrotation Yrotation Zrotation
										JOINT mixamorig:LeftHandRing3
										{
											OFFSET 2.949982 -0.000015 0.000040
											CHANNELS 6 Xposition Yposition Zposition Xrotation Yrotation Zrotation
											JOINT mixamorig:LeftHandRing4
											{
												OFFSET 2.644348 0.000000 0.000057
												CHANNELS 6 Xposition Yposition Zposition Xrotation Yrotation Zrotation
												End Site
												{
													OFFSET 264.434631 0.000000 0.012105
												}
											}
										}
									}
								}
								JOINT mixamorig:LeftHandPinky1
								{
									OFFSET 8.077789 -0.486847 -3.806259
									CHANNELS 6 Xposition Yposition Zposition Xrotation Yrotation Zrotation
									JOINT mixamorig:LeftHandPinky2
									{
										OFFSET 3.599953 0.000031 0.014727
										CHANNELS 6 Xposition Yposition Zposition Xrotation Yrotation Zrotation
										JOINT mixamorig:LeftHandPinky3
										{
											OFFSET 2.100021 0.000015 0.007705
											CHANNELS 6 Xposition Yposition Zposition Xrotation Yrotation Zrotation
											JOINT mixamorig:LeftHandPinky4
											{
												OFFSET 2.125504 0.000031 0.007517
												CHANNELS 6 Xposition Yposition Zposition Xrotation Yrotation Zrotation
												End Site
												{
													OFFSET 212.550781 0.000000 0.625752
												}
											}
										}
									}
								}
							}
						}
					}
				}
			}
		}
	}
	JOINT mixamorig:RightUpLeg
	{
		OFFSET -8.207787 -6.751648 -1.599560
		CHANNELS 6 Xposition Yposition Zposition Xrotation Yrotation Zrotation
		JOINT mixamorig:RightLeg
		{
			OFFSET -0.000002 -44.370117 0.345942
			CHANNELS 6 Xposition Yposition Zposition Xrotation Yrotation Zrotation
			JOINT mixamorig:RightFoot
			{
				OFFSET 0.000003 -44.423679 -3.043532
				CHANNELS 6 Xposition Yposition Zposition Xrotation Yrotation Zrotation
				JOINT mixamorig:RightToeBase
				{
					OFFSET -0.000002 -8.728671 10.710558
					CHANNELS 6 Xposition Yposition Zposition Xrotation Yrotation Zrotation
					JOINT mixamorig:RightToe_End
					{
						OFFSET -0.000001 -0.000679 9.278119
						CHANNELS 6 Xposition Yposition Zposition Xrotation Yrotation Zrotation
						End Site
						{
							OFFSET 0.000000 -0.067690 927.812134
						}
					}
				}
			}
		}
	}
	JOINT mixamorig:LeftUpLeg
	{
		OFFSET 8.207793 -6.751686 -1.599556
		CHANNELS 6 Xposition Yposition Zposition Xrotation Yrotation Zrotation
		JOINT mixamorig:LeftLeg
		{
			OFFSET -0.000004 -44.370014 0.346954
			CHANNELS 6 Xposition Yposition Zposition Xrotation Yrotation Zrotation
			JOINT mixamorig:LeftFoot
			{
				OFFSET -0.000001 -44.423672 -3.044401
				CHANNELS 6 Xposition Yposition Zposition Xrotation Yrotation Zrotation
				JOINT mixamorig:LeftToeBase
				{
					OFFSET -0.000002 -8.728669 10.710558
					CHANNELS 6 Xposition Yposition Zposition Xrotation Yrotation Zrotation
					JOINT mixamorig:LeftToe_End
					{
						OFFSET -0.000003 -0.000679 9.278133
						CHANNELS 6 Xposition Yposition Zposition Xrotation Yrotation Zrotation
						End Site
						{
							OFFSET 0.000000 -0.068021 927.813477
						}
					}
				}
			}
		}
	}
}
MOTION
Frames: 3
Frame Time: 0.033333
0.000006 104.270477 1.554256 0.000010 0.000003 -0.000113 -0.000005 10.181587 0.131522 0.000001 -0.000003 0.000084 -0.000000 9.893967 -1.470711 0.000001 0.000000 -0.000000 -0.000000 9.220802 -1.370642 0.000000 -0.000000 -0.000000 0.000001 16.740433 -2.049030 0.000000 -0.000000 -0.000000 0.000000 9.617859 1.685014 0.000000 0.000000 0.000000 0.000002 22.037384 7.501101 0.000000 -0.000000 0.000000 -4.569968 11.014880 -2.160881 0.000008 0.000001 -0.000038 -10.592872 -0.524781 -2.231883 77.457952 33.425378 -27.078116 -27.841515 0.000008 0.000556 -49.739876 108.317573 65.380599 -28.328806 0.000021 0.000026 -0.000320 -0.000044 0.000007 -2.464468 -1.573668 2.682281 -54.002628 178.660537 -32.898084 -3.215297 -1.872648 1.924662 154.681054 29.845359 -7.034552 -2.654969 -1.527870 1.513077 145.609552 27.220107 -36.887362 -2.018827 -1.152003 1.108070 -0.000000 -0.000005 0.000002 -9.108379 -0.517560 2.260112 96.662142 17.214956 -19.357536 -3.700066 0.000319 0.001507 93.305978 14.112130 -14.916498 -2.850072 0.000368 -0.000270 93.142832 11.345458 -11.979990 -2.772171 -0.000014 -0.000017 0.000002 0.000000 -0.000000 -9.532583 0.000265 0.000202 86.958226 16.374877 -15.674203 -3.700072 0.000312 0.003935 86.847617 12.175927 -11.438502 -2.950077 0.000335 -0.001860 88.434892 11.500322 -11.185481 -2.946639 0.000014 -0.000155 0.000004 -0.000000 -0.000000 -9.103707 -0.042765 -1.864921 81.752576 19.248634 -16.659248 -3.379346 0.000306 -0.000843 85.709004 11.442558 -10.637547 -2.889760 0.000352 0.000595 91.027167 7.716827 -7.902833 -2.638796 0.000016 0.000943 0.000002 -0.000003 0.000001 -8.076759 -0.486411 -3.806124 67.967376 19.072325 -12.814590 -3.600043 0.000242 -0.003589 71.284704 10.474028 -7.255952 -2.100007 0.000288 -0.005568 73.635293 6.624153 -4.793606 -2.115762 -0.000055 -0.003682 0.000000 -0.000001 -0.000002 4.570446 11.014691 -2.160851 -0.000018 0.000010 -0.000021 10.592411 -0.524465 -2.232355 74.413313 -16.164382 12.307025 27.841820 0.000089 -0.000226 105.474383 -69.691261 84.924953 28.328827 -0.000029 0.000022 0.000025 -0.000088 -0.000001 2.465936 -1.576132 2.681910 -45.226917 169.102944 2.465620 3.217851 -1.871830 1.916384 154.877258 -26.213873 28.584714 2.656109 -1.528641 1.514450 139.176770 -28.058168 45.388642 2.020898 -1.154081 1.115153 -0.000003 0.000000 0.000003 9.109363 -0.517892 2.259738 74.915414 -17.315858 13.298616 3.700047 0.000118 -0.000457 70.676933 -16.729913 11.917056 2.850045 0.000139 0.000213 67.017782 -13.512830 8.969410 2.774895 -0.000029 -0.000027 -0.000000 -0.000002 -0.000000 9.533468 0.000187 -0.000082 72.185134 -15.364611 11.225972 3.700045 0.000136 -0.000368 76.507865 -14.843135 11.725616 2.950051 0.000132 -0.000184 75.321222 -18.031727 13.965642 2.952876 -0.000031 0.000064 -0.000001 0.000001 -0.000001 9.104586 -0.042861 -1.865232 74.199931 -13.595673 10.304440 3.150042 0.000166 -0.000094 77.636554 -13.351570 10.760602 2.950026 0.000141 -0.000067 77.901859 -15.273660 12.373560 2.644334 0.000032 0.000060 -0.000000 -0.000000 -0.000000 8.077833 -0.486748 -3.806406 62.629208 -16.011094 10.149332 3.600005 0.000121 0.014570 63.001023 -13.138409 8.394267 2.100044 0.000134 0.007540 64.969955 -12.820716 8.500798 2.125484 -0.000018 0.007514 -0.000002 -0.000000 0.000002 -8.207786 -6.751667 -1.599560 -0.077001 -0.000003 0.000080 -0.000002 -44.370110 0.345938 0.153719 -0.000000 -0.000000 0.000000 -44.423679 -3.043532 -0.076700 0.000000 -0.000002 -0.000006 -8.728667 10.710559 -0.000009 -0.000000 -0.000000 -0.000001 -0.000679 9.278123 0.000000 -0.000000 -0.000000 8.207792 -6.751710 -1.599556 -0.074518 -0.000003 0.000081 -0.000002 -44.370014 0.346960 0.148822 0.000002 0.000000 -0.000001 -44.423664 -3.044403 -0.074314 0.000000 -0.000002 -0.000004 -8.728671 10.710558 0.000007 -0.000000 -0.000000 0.000000 -0.000680 9.278137 -0.000000 0.000000 -0.000001 
0.000006 104.270477 1.554256 0.000010 0.000003 -0.000113 -0.000005 10.181587 0.131522 0.000001 -0.000003 0.000084 -0.000000 9.893967 -1.470711 0.000001 0.000000 -0.000000 -0.000000 9.220802 -1.370642 0.000000 -0.000000 -0.000000 0.000001 16.740433 -2.049030 0.000000 -0.000000 -0.000000 0.000000 9.617859 1.685014 0.000000 0.000000 0.000000 0.000002 22.037384 7.501101 0.000000 -0.000000 0.000000 -4.569968 11.014880 -2.160881 0.000008 0.000001 -0.000038 -10.592871 -0.524756 -2.231907 78.182375 27.913424 -22.830023 -27.841513 0.000009 0.000571 -46.810855 108.066365 61.631618 -28.328821 0.000017 0.000019 -0.000322 -0.000046 0.000007 -2.464506 -1.573636 2.682253 -56.306939 176.587984 -44.018909 -3.215287 -1.872546 1.924641 149.870483 31.247135 5.738331 -2.654967 -1.527867 1.513055 143.944160 28.016761 -30.058932 -2.018827 -1.152010 1.108059 -0.000003 -0.000002 0.000005 -9.108382 -0.517550 2.260116 95.682071 14.761355 -16.333906 -3.700066 0.000323 0.001483 91.305258 12.735303 -13.002393 -2.850075 0.000359 -0.000283 89.668158 10.996526 -10.932483 -2.772171 -0.000018 -0.000019 0.000000 0.000000 -0.000000 -9.532583 0.000273 0.000212 86.760382 13.872712 -13.248396 -3.700092 0.000331 0.003930 86.045384 11.911224 -11.033058 -2.950064 0.000334 -0.001852 88.248592 11.734618 -11.376744 -2.946616 0.000001 -0.000157 0.000001 -0.000000 -0.000000 -9.103701 -0.042758 -1.864910 82.565280 17.494766 -15.347821 -3.379331 0.000295 -0.000849 84.225228 10.705135 -9.698184 -2.889771 0.000349 0.000601 90.876739 7.870118 -8.037896 -2.638815 -0.000010 0.000943 -0.000001 0.000000 -0.000001 -8.076761 -0.486415 -3.806075 70.248400 19.166218 -13.434892 -3.600046 0.000242 -0.003605 70.428314 9.998268 -6.806677 -2.100033 0.000280 -0.005584 74.618751 5.438021 -3.977944 -2.115774 -0.000041 -0.003681 -0.000000 -0.000001 -0.000004 4.570446 11.014691 -2.160851 -0.000018 0.000010 -0.000021 10.592404 -0.524471 -2.232355 75.128085 -14.157526 10.911365 27.841820 0.000056 -0.000197 107.152199 -72.879758 90.033587 28.328825 -0.000029 0.000021 0.000023 -0.000090 -0.000000 2.466086 -1.576162 2.681905 -26.479855 163.452082 -41.144540 3.217872 -1.871871 1.916421 158.776695 -22.176214 44.882064 2.656091 -1.528666 1.514501 136.791368 -28.491714 58.013571 2.020880 -1.154070 1.115149 0.000003 0.000007 0.000004 9.109370 -0.517894 2.259743 74.859317 -19.471317 14.952438 3.700038 0.000133 -0.000471 73.546152 -13.010559 9.754882 2.850031 0.000152 0.000197 73.028977 -10.752517 7.970257 2.774879 -0.000044 -0.000023 0.000001 0.000000 0.000000 9.533446 0.000175 -0.000104 74.558147 -17.663950 13.484005 3.700033 0.000151 -0.000389 77.320713 -11.036349 8.836959 2.950043 0.000134 -0.000209 77.838516 -11.777620 9.523906 2.952864 -0.000045 0.000064 -0.000000 0.000001 0.000001 9.104582 -0.042885 -1.865212 74.713998 -17.359887 13.295882 3.150053 0.000174 -0.000099 79.058538 -11.850886 9.791919 2.950009 0.000155 -0.000083 80.255604 -10.849355 9.154385 2.644318 0.000047 0.000058 -0.000000 -0.000002 0.000000 8.077833 -0.486764 -3.806404 65.347302 -19.184116 12.772309 3.600002 0.000134 0.014578 65.617832 -15.993002 10.697641 2.100006 0.000138 0.007557 68.553249 -12.710663 9.019496 2.125490 -0.000014 0.007518 -0.000002 -0.000000 -0.000001 -8.207786 -6.751667 -1.599560 -0.077001 -0.000003 0.000080 -0.000002 -44.370110 0.345938 0.153719 -0.000000 -0.000000 0.000000 -44.423679 -3.043532 -0.076700 0.000000 -0.000002 -0.000006 -8.728667 10.710559 -0.000009 -0.000000 -0.000000 -0.000001 -0.000679 9.278123 0.000000 -0.000000 -0.000000 8.207792 -6.751710 -1.599556 -0.074518 -0.000003 0.000081 -0.000002 -44.370014 0.346960 0.148822 0.000002 0.000000 -0.000001 -44.423664 -3.044403 -0.074314 0.000000 -0.000002 -0.000004 -8.728671 10.710558 0.000007 -0.000000 -0.000000 0.000000 -0.000680 9.278137 -0.000000 0.000000 -0.000001 
0.000006 104.270477 1.554256 0.000010 0.000003 -0.000113 -0.000005 10.181587 0.131522 0.000001 -0.000003 0.000084 -0.000000 9.893967 -1.470711 0.000001 0.000000 -0.000000 -0.000000 9.220802 -1.370642 0.000000 -0.000000 -0.000000 0.000001 16.740433 -2.049030 0.000000 -0.000000 -0.000000 0.000000 9.617859 1.685014 0.000000 0.000000 0.000000 0.000002 22.037384 7.501101 0.000000 -0.000000 0.000000 -4.569968 11.014880 -2.160881 0.000008 0.000001 -0.000038 -10.592870 -0.524772 -2.231886 78.198064 30.818770 -25.249982 -27.841522 0.000014 0.000550 -46.062830 106.501419 59.307557 -28.328793 0.000021 0.000028 -0.000323 -0.000041 0.000005 -2.464482 -1.573671 2.682254 -55.643075 180.174148 -38.156295 -3.215274 -1.872594 1.924639 150.678891 30.701410 0.766997 -2.654971 -1.527872 1.513059 143.245473 28.052301 -31.045395 -2.018831 -1.152012 1.108050 -0.000002 -0.000004 0.000004 -9.108389 -0.517539 2.260105 96.368949 14.339600 -16.059510 -3.700059 0.000319 0.001488 92.797361 12.109031 -12.685987 -2.850078 0.000372 -0.000277 91.089732 10.397361 -10.594960 -2.772171 -0.000017 -0.000019 -0.000001 0.000000 -0.000000 -9.532583 0.000274 0.000207 87.804390 13.730620 -13.352956 -3.700066 0.000327 0.003942 87.430800 11.181010 -10.603806 -2.950062 0.000332 -0.001856 88.454542 11.353199 -11.046017 -2.946628 0.000001 -0.000155 -0.000004 0.000000 -0.000002 -9.103693 -0.042763 -1.864906 83.604589 16.827489 -15.028325 -3.379329 0.000307 -0.000845 85.617733 10.167021 -9.437387 -2.889770 0.000362 0.000613 91.172124 7.907996 -8.117985 -2.638829 -0.000018 0.000941 -0.000001 0.000001 -0.000004 -8.076757 -0.486405 -3.806075 71.355915 19.061219 -13.634016 -3.600028 0.000246 -0.003585 71.451661 10.259457 -7.124112 -2.100016 0.000301 -0.005558 74.939408 5.822690 -4.295250 -2.115777 -0.000043 -0.003682 0.000000 -0.000002 -0.000005 4.570446 11.014691 -2.160851 -0.000018 0.000010 -0.000021 10.592426 -0.524461 -2.232373 75.411941 -21.694486 16.851870 27.841822 0.000063 -0.000207 107.512546 -75.518950 93.152572 28.328848 -0.000028 0.000021 0.000023 -0.000088 -0.000001 2.466264 -1.576027 2.681822 9.637999 172.105126 -107.571614 3.217874 -1.871865 1.916431 162.489353 -20.035638 48.913450 2.656097 -1.528676 1.514490 141.897084 -26.686492 56.294310 2.020887 -1.154079 1.115151 -0.000001 -0.000001 0.000001 9.109374 -0.517886 2.259748 79.310661 -21.411303 17.801512 3.700030 0.000128 -0.000456 77.668246 -16.293778 13.161890 2.850041 0.000156 0.000198 77.052949 -13.260353 10.573971 2.774903 -0.000030 -0.000020 0.000001 0.000001 -0.000000 9.533475 0.000182 -0.000085 79.254162 -18.868324 15.661007 3.700054 0.000164 -0.000373 82.507394 -12.566257 11.029568 2.950075 0.000160 -0.000217 83.381720 -11.497506 10.250303 2.952856 -0.000015 0.000058 -0.000001 0.000000 0.000001 9.104576 -0.042872 -1.865191 79.011061 -19.230684 15.905000 3.150048 0.000185 -0.000077 82.689228 -13.921207 12.264534 2.950011 0.000161 -0.000089 83.367745 -10.582922 9.430789 2.644317 0.000017 0.000059 0.000002 0.000001 0.000000 8.077831 -0.486754 -3.806381 70.334932 -20.320863 14.833602 3.600007 0.000133 0.014578 69.547015 -16.945371 12.186289 2.100033 0.000153 0.007552 72.336088 -12.307908 9.371818 2.125504 -0.000017 0.007516 -0.000001 -0.000000 0.000000 -8.207786 -6.751667 -1.599560 -0.077001 -0.000003 0.000080 -0.000002 -44.370110 0.345938 0.153719 -0.000000 -0.000000 0.000000 -44.423679 -3.043532 -0.076700 0.000000 -0.000002 -0.000006 -8.728667 10.710559 -0.000009 -0.000000 -0.000000 -0.000001 -0.000679 9.278123 0.000000 -0.000000 -0.000000 8.207792 -6.751710 -1.599556 -0.074518 -0.000003 0.000081 -0.000002 -44.370014 0.346960 0.148822 0.000002 0.000000 -0.000001 -44.423664 -3.044403 -0.074314 0.000000 -0.000002 -0.000004 -8.728671 10.710558 0.000007 -0.000000 -0.000000 0.000000 -0.000680 9.278137 -0.000000 0.000000 -0.000001 
